<?xml version="1.0" encoding="utf-8"?>
<!-- Generator: Adobe Illustrator 26.0.3, SVG Export Plug-In . SVG Version: 6.00 Build 0)  -->
<svg version="1.1" id="Layer_1" xmlns="http://www.w3.org/2000/svg" xmlns:xlink="http://www.w3.org/1999/xlink" x="0px" y="0px"
	 viewBox="0 0 552.67 149.59" style="enable-background:new 0 0 552.67 149.59;" xml:space="preserve">
<style type="text/css">
	.st0{enable-background:new    ;}
	.st1{fill:#DEE56F;}
</style>
<g>
	<g class="st0">
		<path d="M252.43,63.6c2.64,2.7,3.96,6.46,3.96,11.26v20.98h-10.94v-19.5c0-2.32-0.61-4.11-1.83-5.37c-1.22-1.26-2.91-1.9-5.05-1.9
			c-2.15,0-3.83,0.63-5.05,1.9c-1.22,1.27-1.83,3.06-1.83,5.37v19.5h-10.94v-19.5c0-2.32-0.61-4.11-1.83-5.37
			c-1.22-1.26-2.91-1.9-5.05-1.9c-2.15,0-3.83,0.63-5.05,1.9c-1.22,1.27-1.83,3.06-1.83,5.37v19.5h-11V59.93h11v4.5
			c1.12-1.5,2.57-2.69,4.38-3.57c1.8-0.88,3.84-1.32,6.11-1.32c2.7,0,5.12,0.58,7.24,1.74s3.79,2.81,4.99,4.95
			c1.24-1.97,2.94-3.58,5.08-4.83c2.14-1.24,4.48-1.87,7.01-1.87C246.24,59.54,249.79,60.9,252.43,63.6z"/>
		<path d="M297.76,80.52h-24.9c0.17,2.23,0.89,3.94,2.16,5.12c1.27,1.18,2.82,1.77,4.67,1.77c2.74,0,4.65-1.16,5.73-3.47h11.71
			c-0.6,2.36-1.68,4.48-3.25,6.37c-1.57,1.89-3.53,3.37-5.89,4.44s-5,1.61-7.91,1.61c-3.52,0-6.65-0.75-9.4-2.25
			c-2.75-1.5-4.89-3.65-6.43-6.43c-1.54-2.79-2.32-6.05-2.32-9.78c0-3.73,0.76-6.99,2.28-9.78c1.52-2.79,3.66-4.93,6.4-6.43
			c2.75-1.5,5.9-2.25,9.46-2.25c3.47,0,6.56,0.73,9.27,2.19c2.7,1.46,4.82,3.54,6.34,6.24c1.52,2.7,2.29,5.86,2.29,9.46
			C297.96,78.33,297.89,79.41,297.76,80.52z M286.7,74.41c0-1.89-0.64-3.39-1.93-4.5c-1.29-1.12-2.9-1.67-4.83-1.67
			c-1.84,0-3.4,0.54-4.67,1.61c-1.27,1.07-2.05,2.6-2.35,4.57H286.7z"/>
		<path d="M303.65,68.1c1.39-2.79,3.29-4.93,5.69-6.43c2.4-1.5,5.08-2.25,8.04-2.25c2.36,0,4.51,0.49,6.47,1.48
			c1.95,0.99,3.48,2.32,4.6,3.99V48.22h11v47.62h-11v-5.15c-1.03,1.72-2.5,3.09-4.41,4.12c-1.91,1.03-4.13,1.54-6.66,1.54
			c-2.96,0-5.64-0.76-8.04-2.28c-2.4-1.52-4.3-3.69-5.69-6.5c-1.39-2.81-2.09-6.06-2.09-9.75S302.26,70.89,303.65,68.1z
			 M326.17,71.38c-1.52-1.59-3.38-2.38-5.57-2.38c-2.19,0-4.04,0.78-5.57,2.35c-1.52,1.57-2.28,3.72-2.28,6.47s0.76,4.92,2.28,6.53
			c1.52,1.61,3.38,2.41,5.57,2.41c2.19,0,4.04-0.79,5.57-2.38c1.52-1.59,2.28-3.75,2.28-6.5C328.46,75.14,327.7,72.97,326.17,71.38z
			"/>
		<path d="M348.24,54.49c-1.22-1.14-1.83-2.54-1.83-4.21c0-1.71,0.61-3.14,1.83-4.28s2.8-1.71,4.73-1.71c1.89,0,3.44,0.57,4.67,1.71
			s1.83,2.56,1.83,4.28c0,1.67-0.61,3.08-1.83,4.21c-1.22,1.14-2.78,1.71-4.67,1.71C351.04,56.2,349.46,55.63,348.24,54.49z
			 M358.44,59.93v35.91h-11V59.93H358.44z"/>
		<path d="M366.32,68.1c1.39-2.79,3.29-4.93,5.69-6.43c2.4-1.5,5.08-2.25,8.04-2.25c2.53,0,4.75,0.51,6.66,1.54
			c1.91,1.03,3.38,2.38,4.41,4.05v-5.08h11v35.91h-11v-5.08c-1.07,1.67-2.56,3.02-4.47,4.05c-1.91,1.03-4.13,1.54-6.66,1.54
			c-2.92,0-5.58-0.76-7.98-2.28c-2.4-1.52-4.3-3.69-5.69-6.5c-1.39-2.81-2.09-6.06-2.09-9.75S364.93,70.89,366.32,68.1z
			 M388.84,71.38c-1.52-1.59-3.38-2.38-5.57-2.38s-4.04,0.78-5.57,2.35c-1.52,1.57-2.28,3.72-2.28,6.47s0.76,4.92,2.28,6.53
			c1.52,1.61,3.38,2.41,5.57,2.41s4.04-0.79,5.57-2.38c1.52-1.59,2.29-3.75,2.29-6.5C391.13,75.14,390.37,72.97,388.84,71.38z"/>
	</g>
	
		<ellipse transform="matrix(0.7071 -0.7071 0.7071 0.7071 87.416 360.6408)" class="st1" cx="479.04" cy="74.8" rx="68.44" ry="68.44"/>
	<g>
		<g class="st0">
			<path d="M433.93,54.65c-1.5-1.33-2.25-3-2.25-5.02c0-2.06,0.75-3.76,2.25-5.12c1.5-1.35,3.5-2.03,5.98-2.03
				c2.45,0,4.42,0.67,5.92,2.03c1.5,1.35,2.25,3.06,2.25,5.12c0,2.02-0.75,3.69-2.25,5.02c-1.5,1.33-3.47,1.99-5.92,1.99
				C437.43,56.65,435.43,55.98,433.93,54.65z M447,59.54v36.29h-14.29V59.54H447z"/>
			<path d="M488.6,63.47c2.34,2.79,3.51,6.56,3.51,11.33v21.04h-14.22V76.6c0-1.72-0.46-3.08-1.38-4.09
				c-0.92-1.01-2.16-1.51-3.7-1.51c-1.59,0-2.83,0.5-3.73,1.51c-0.9,1.01-1.35,2.37-1.35,4.09v19.24h-14.29V59.54h14.29v5.53
				c1.12-1.71,2.61-3.11,4.47-4.18c1.87-1.07,4.09-1.61,6.66-1.61C483.01,59.29,486.26,60.68,488.6,63.47z"/>
			<path d="M498.7,67.81c1.57-2.81,3.75-4.96,6.56-6.47c2.81-1.5,6.02-2.25,9.62-2.25c4.72,0,8.7,1.33,11.94,3.99
				s5.29,6.35,6.15,11.07h-15.12c-0.56-1.89-1.65-2.83-3.28-2.83c-1.16,0-2.07,0.54-2.73,1.61c-0.67,1.07-1,2.66-1,4.76
				c0,2.1,0.33,3.69,1,4.76c0.66,1.07,1.58,1.61,2.73,1.61c1.63,0,2.72-0.94,3.28-2.83h15.12c-0.86,4.72-2.91,8.41-6.15,11.07
				c-3.24,2.66-7.22,3.99-11.94,3.99c-3.6,0-6.81-0.75-9.62-2.25c-2.81-1.5-5-3.66-6.56-6.47c-1.57-2.81-2.35-6.1-2.35-9.88
				C496.35,73.92,497.13,70.62,498.7,67.81z"/>
		</g>
	</g>
	<g class="st0">
		<path d="M14.83,50.86v44.98h-4.5V50.86H14.83z"/>
		<path d="M51.83,63.95c2.66,2.6,3.99,6.36,3.99,11.29v20.59h-4.44V75.76c0-3.82-0.96-6.73-2.86-8.75
			c-1.91-2.02-4.52-3.02-7.82-3.02c-3.39,0-6.09,1.07-8.11,3.22c-2.02,2.15-3.02,5.3-3.02,9.46v19.17h-4.5V60.7h4.5v5.98
			c1.12-2.14,2.72-3.79,4.83-4.92c2.1-1.14,4.48-1.71,7.14-1.71C45.74,60.06,49.17,61.36,51.83,63.95z"/>
		<path d="M79.63,64.5h-8.17v31.34h-4.5V64.5h-4.89v-3.8h4.89v-2.45c0-3.82,0.98-6.63,2.93-8.43c1.95-1.8,5.12-2.7,9.49-2.7v3.86
			c-2.92,0-4.97,0.56-6.15,1.67c-1.18,1.12-1.77,2.98-1.77,5.6v2.45h8.17V64.5z"/>
		<path d="M86.64,53.11c-0.64-0.64-0.97-1.44-0.97-2.38S86,49,86.64,48.38s1.42-0.93,2.32-0.93s1.67,0.31,2.32,0.93
			s0.97,1.41,0.97,2.35s-0.32,1.74-0.97,2.38c-0.64,0.64-1.42,0.97-2.32,0.97S87.28,53.75,86.64,53.11z M91.21,60.7v35.13h-4.5V60.7
			H91.21z"/>
		<path d="M128.21,63.95c2.66,2.6,3.99,6.36,3.99,11.29v20.59h-4.44V75.76c0-3.82-0.96-6.73-2.86-8.75
			c-1.91-2.02-4.52-3.02-7.82-3.02c-3.39,0-6.09,1.07-8.11,3.22c-2.02,2.15-3.02,5.3-3.02,9.46v19.17h-4.5V60.7h4.5v5.98
			c1.12-2.14,2.72-3.79,4.83-4.92c2.1-1.14,4.48-1.71,7.14-1.71C122.12,60.06,125.55,61.36,128.21,63.95z"/>
		<path d="M142.11,53.11c-0.64-0.64-0.97-1.44-0.97-2.38s0.32-1.73,0.97-2.35s1.42-0.93,2.32-0.93s1.67,0.31,2.32,0.93
			s0.97,1.41,0.97,2.35s-0.32,1.74-0.97,2.38c-0.64,0.64-1.42,0.97-2.32,0.97S142.75,53.75,142.11,53.11z M146.67,60.7v35.13h-4.5
			V60.7H146.67z"/>
		<path d="M162.76,64.5v21.81c0,2.15,0.41,3.63,1.22,4.44c0.81,0.82,2.25,1.22,4.31,1.22h4.12v3.86h-4.83
			c-3.17,0-5.53-0.74-7.08-2.22c-1.54-1.48-2.32-3.91-2.32-7.3V64.5h-4.89v-3.8h4.89v-8.82h4.57v8.82h9.65v3.8H162.76z"/>
		<path d="M179.75,53.11c-0.64-0.64-0.97-1.44-0.97-2.38s0.32-1.73,0.97-2.35s1.42-0.93,2.32-0.93s1.67,0.31,2.32,0.93
			s0.97,1.41,0.97,2.35s-0.32,1.74-0.97,2.38c-0.64,0.64-1.42,0.97-2.32,0.97S180.39,53.75,179.75,53.11z M184.32,60.7v35.13h-4.5
			V60.7H184.32z"/>
	</g>
</g>
</svg>
